<?xml version="1.0" encoding="utf-8"?>
<!-- Generator: Adobe Illustrator 28.1.0, SVG Export Plug-In . SVG Version: 6.00 Build 0)  -->
<svg version="1.1" id="Layer_1" xmlns="http://www.w3.org/2000/svg" xmlns:xlink="http://www.w3.org/1999/xlink" x="0px" y="0px"
	 viewBox="0 0 77.2 32" style="enable-background:new 0 0 77.2 32;" xml:space="preserve">
<style type="text/css">
	.st0{fill:#FFE432;}
	.st1{fill:#FFE432;stroke:#FFE432;stroke-width:0.2;stroke-miterlimit:10;}
	.st2{fill:#FFE432;stroke:#FFE432;stroke-width:0.5;stroke-miterlimit:10;}
</style>
<g>
	<path class="st0" d="M10.6,10.4H7c-1.1,0-2,0.9-2,2v0c0,0.3,0.2,0.5,0.5,0.5h4.7c1.2,0,2.6-0.2,3.3,0.4c0.9,0.7,0.8,2.4,0.8,4.3
		c0,1.4,0.1,2.7-0.4,3.4c-0.7,1-2.2,1.2-3.8,1.2h-3c-2.5,0-4-1-4-3.6l0-14.5c0-0.4-0.3-0.8-0.8-0.8l-0.8,0c-0.5,0-0.9,0.4-0.9,0.9
		v14.4c0,4.4,1.9,6.5,5.6,6.5h4.2c4,0,6.6-2.5,6.6-7.6c0-2.7-0.4-4.9-1.7-6.2C14.4,10.2,12.5,10.4,10.6,10.4z"/>
</g>
<g>
	<path class="st1" d="M21.8,15c1.7,0,2.7,1,2.7,3.2c0,2.1-1.1,3.2-2.7,3.2h-1.3c-1.7,0-2.7-1-2.7-3.2c0-2.1,1.1-3.2,2.7-3.2H21.8z
		 M20.6,16.2c-1.1,0-1.6,0.6-1.6,1.9s0.5,1.9,1.6,1.9h1.1c1.1,0,1.6-0.6,1.6-1.9s-0.5-1.9-1.6-1.9H20.6z"/>
	<path class="st1" d="M29.2,15c1.7,0,2.7,1,2.7,3.2c0,2.1-1.1,3.2-2.7,3.2h-1.3c-1.7,0-2.7-1-2.7-3.2c0-2.1,1.1-3.2,2.7-3.2H29.2z
		 M28,16.2c-1.1,0-1.6,0.6-1.6,1.9s0.5,1.9,1.6,1.9h1.1c1.1,0,1.6-0.6,1.6-1.9s-0.5-1.9-1.6-1.9H28z"/>
	<path class="st1" d="M34,12.2v5.4h0.6c1,0,1.2,0,1.6-0.7l1.1-1.9h1.4l-1.1,2c-0.3,0.6-0.6,0.9-1.1,1.1c0.6,0.2,0.9,0.6,1.3,1.2
		l1.1,2h-1.4l-1.1-1.9c-0.4-0.7-0.6-0.8-1.7-0.8H34v2.6h-1.3v-9.1H34z"/>
	<path class="st1" d="M45.9,12.2c1.4,0,2,0.9,2,2.1c0,0.9-0.4,1.5-1.5,2.1l-0.7,0.4l1.4,1.6l1.1-1.4h1.5l-1.8,2.3l1.8,2H48l-0.9-1.1
		c-0.8,0.9-1.4,1.1-2.2,1.1h-1.4c-1.2,0-2.1-0.7-2.1-2.3c0-1.1,0.4-1.6,2.1-2.4l0.3-0.2L43.4,16c-0.4-0.5-0.7-1-0.7-1.7
		c0-1.1,0.7-2.1,2.1-2.1H45.9z M46.3,19.3l-1.8-2.1l-0.4,0.2c-1.1,0.6-1.4,0.8-1.4,1.4c0,0.7,0.4,1.2,1.1,1.2h1.1
		C45.4,20.1,45.8,19.9,46.3,19.3z M44.6,15.4l0.4,0.5l0.7-0.4c0.6-0.3,0.9-0.6,0.9-1.2c0-0.5-0.3-1-0.9-1H45c-0.6,0-0.9,0.4-0.9,1
		C44.1,14.8,44.2,15.1,44.6,15.4z"/>
	<path class="st1" d="M56.3,13.2c2.4,0,3.6,1.3,3.6,4.1c0,2.7-1.3,4-3.6,4h-2.9c-0.5,0-0.7-0.2-0.7-0.7v-6.8c0-0.4,0.2-0.7,0.7-0.7
		H56.3z M54.2,19.7c0,0.1,0,0.1,0.2,0.1h2c1.6,0,2.2-0.8,2.2-2.6c0-1.8-0.7-2.6-2.2-2.6h-2c-0.1,0-0.2,0-0.2,0.1V19.7z"/>
	<path class="st1" d="M62.1,12.6V14h-1.3v-1.5H62.1z M62.1,15v6.3h-1.3V15H62.1z"/>
	<path class="st1" d="M69,15v1.2h-3.1c-1.1,0-1.6,0.6-1.6,1.9s0.5,1.9,1.6,1.9H69v1.2h-3.3c-1.7,0-2.7-1-2.7-3.2
		c0-2.1,1.1-3.2,2.7-3.2H69z"/>
	<path class="st1" d="M73.9,15c1.5,0,2.1,0.7,2.1,1.9c0,1.2-0.6,1.8-2.1,1.8h-3v0.5c0,0.5,0.3,0.9,1,0.9h3.9v1.2h-3.9
		c-1.6,0-2.2-0.9-2.2-2.1V17c0-1.2,0.6-2.1,2.2-2.1H73.9z M70.9,17.7h3c0.7,0,0.9-0.3,0.9-0.8c0-0.5-0.3-0.8-0.9-0.8h-2
		c-0.7,0-1,0.4-1,0.9V17.7z"/>
</g>
<circle class="st2" cx="6.2" cy="15.2" r="0.6"/>
<circle class="st2" cx="11.8" cy="15.2" r="0.6"/>
<circle class="st2" cx="6.2" cy="19.9" r="0.6"/>
<circle class="st2" cx="11.8" cy="19.9" r="0.6"/>
<circle class="st2" cx="9.1" cy="17.5" r="0.6"/>
</svg>
